<svg fill="none" xmlns="http://www.w3.org/2000/svg">
  <g clip-path="url(#a)">
    <path
      d="M2.014 27.733C.67 26.213 0 24.088 0 21.356c0-1.882.345-3.546 1.034-4.992a7.937 7.937 0 0 1 2.871-3.37 7.57 7.57 0 0 1 4.189-1.183c2.116 0 3.68.642 4.691 1.926 1.012 1.285 1.516 2.844 1.514 4.68 0 1.224-.125 2.048-.373 2.472-.25.424-.696.636-1.339.636H3.718c0 1.766.416 3.173 1.247 4.22.832 1.048 2.187 1.572 4.066 1.572a11.009 11.009 0 0 0 3.733-.573 4.24 4.24 0 0 0 .643-.266l.534 1.166c0 .049-.279.278-.839.688a9.65 9.65 0 0 1-2.174 1.148 8.123 8.123 0 0 1-3.013.531c-2.591 0-4.559-.76-5.903-2.278h.002Zm8.682-8.32c.073-.444.108-.893.107-1.342 0-1.366-.226-2.367-.678-3.003-.452-.636-1.28-.956-2.486-.961-1.332 0-2.306.477-2.924 1.431-.617.954-.95 2.337-.997 4.149l6.978-.274ZM46.455 27.733c-1.344-1.52-2.016-3.645-2.015-6.377 0-1.882.345-3.546 1.035-4.992a7.924 7.924 0 0 1 2.87-3.355 7.57 7.57 0 0 1 4.19-1.184c2.115 0 3.678.643 4.689 1.927 1.01 1.284 1.515 2.844 1.515 4.68 0 1.224-.124 2.047-.373 2.472-.249.424-.695.636-1.338.636h-8.882c0 1.766.415 3.173 1.247 4.22.831 1.048 2.186 1.572 4.065 1.572a10.974 10.974 0 0 0 3.733-.573c.222-.072.436-.16.643-.266l.534 1.166c0 .048-.28.278-.838.688a9.654 9.654 0 0 1-2.175 1.148 8.13 8.13 0 0 1-3.013.53c-2.592 0-4.56-.758-5.902-2.277l.015-.015Zm8.668-8.305c.073-.444.108-.893.107-1.342 0-1.366-.226-2.367-.678-3.003-.452-.636-1.28-.961-2.486-.976-1.33 0-2.306.477-2.925 1.431-.62.954-.952 2.337-.995 4.149l6.977-.259ZM73.966 28.482a8.745 8.745 0 0 1-2.085 1.043c-.945.33-1.94.492-2.942.477-2.45 0-4.363-.736-5.742-2.208-1.379-1.471-2.068-3.62-2.068-6.447 0-1.882.338-3.546 1.015-4.992A7.785 7.785 0 0 1 65.015 13a7.792 7.792 0 0 1 4.28-1.183c1.734 0 3.118.424 4.154 1.272 1.035.848 1.552 1.908 1.551 3.179.01.469-.163.924-.482 1.271-.32.354-.825.531-1.515.531a2.437 2.437 0 0 1-.801-.107 3.8 3.8 0 0 1-.373-.14l-.607-3.356a2.469 2.469 0 0 0-.624-.185 5.754 5.754 0 0 0-1.409-.16c-1.618 0-2.747.513-3.386 1.537-.64 1.025-.96 2.726-.963 5.105 0 2.378.427 4.067 1.282 5.068.855 1 2.258 1.501 4.21 1.501a11.76 11.76 0 0 0 1.866-.142c.47-.069.935-.17 1.39-.3.225-.062.445-.139.66-.23l.5 1.2c0 .049-.263.262-.786.637M40.481 13.754c-1.19-1.294-2.758-1.942-4.706-1.943a7.255 7.255 0 0 0-3.031.584 8.729 8.729 0 0 0-2.031 1.216l.069 1.38a12.174 12.174 0 0 1 3.388-.53c1.57 0 2.68.488 3.334 1.465.653.978.98 2.608.982 4.892 0 2.472-.381 4.237-1.143 5.297-.761 1.06-1.881 1.59-3.36 1.59a9.08 9.08 0 0 1-3.21-.6l-.286 1.342c1.094 1.013 2.473 1.52 4.136 1.52a6.647 6.647 0 0 0 3.8-1.167c1.153-.776 2.08-1.93 2.78-3.461.701-1.53 1.052-3.39 1.053-5.58 0-2.712-.595-4.713-1.784-6.005"
      fill="#252525" />
    <path d="M22.559 0h-4.648v29.791h4.648V0Z" fill="#E8476F" />
    <path d="M31.258 3.021H26.61v26.77h4.648V3.021Z" fill="#FDD068" />
    <path d="M22.559 7.567h-4.648v22.224h4.648V7.567Z" fill="#8DC9E6" />
    <path d="M31.258 13.654H26.61v16.139h4.648V13.654ZM22.559 24.152h-4.648v5.64h4.648v-5.64Z" fill="#50B693" />
  </g>
  <defs>
    <clipPath id="a">
      <path fill="#fff" d="M0 0h75v30H0z" />
    </clipPath>
  </defs>
</svg>