<svg width="74" height="30" fill="none" xmlns="http://www.w3.org/2000/svg">
  <g clip-path="url(#a)">
    <path
      d="M1.987 27.733C.661 26.213 0 24.088 0 21.356c0-1.882.34-3.546 1.02-4.992a7.91 7.91 0 0 1 2.833-3.37 7.395 7.395 0 0 1 4.133-1.183c2.087 0 3.63.642 4.628 1.926.999 1.285 1.497 2.844 1.494 4.68 0 1.224-.123 2.048-.368 2.472-.246.424-.686.636-1.32.636H3.668c0 1.766.41 3.173 1.23 4.22.82 1.048 2.158 1.572 4.012 1.572a10.744 10.744 0 0 0 3.684-.573c.217-.07.43-.16.633-.266l.527 1.166c0 .049-.275.278-.827.688a9.479 9.479 0 0 1-2.146 1.148 7.917 7.917 0 0 1-2.973.531c-2.556 0-4.497-.76-5.824-2.278h.002Zm8.566-8.32c.072-.444.107-.892.105-1.342 0-1.366-.222-2.367-.668-3.003-.446-.636-1.264-.956-2.453-.961-1.314 0-2.276.477-2.885 1.431-.609.954-.936 2.337-.983 4.149l6.885-.274ZM45.835 27.733c-1.326-1.52-1.988-3.645-1.987-6.377 0-1.882.34-3.546 1.02-4.992a7.896 7.896 0 0 1 2.833-3.355 7.396 7.396 0 0 1 4.133-1.184c2.087 0 3.63.643 4.627 1.927.997 1.284 1.495 2.844 1.495 4.68 0 1.224-.123 2.048-.368 2.472-.246.424-.686.636-1.32.636h-8.764c0 1.766.41 3.173 1.23 4.22.82 1.048 2.157 1.572 4.012 1.572a10.711 10.711 0 0 0 3.684-.573c.217-.071.43-.16.633-.266l.526 1.166c0 .048-.275.278-.826.688a9.48 9.48 0 0 1-2.146 1.148 7.925 7.925 0 0 1-2.973.53c-2.557 0-4.499-.758-5.824-2.277l.015-.015Zm8.553-8.305c.072-.444.107-.893.105-1.342 0-1.366-.222-2.367-.668-3.003-.446-.636-1.264-.961-2.453-.976-1.313 0-2.275.477-2.886 1.431-.612.954-.94 2.337-.982 4.149l6.885-.259ZM72.98 28.482a8.583 8.583 0 0 1-2.058 1.043 8.3 8.3 0 0 1-2.902.477c-2.417 0-4.305-.736-5.666-2.208-1.36-1.471-2.04-3.62-2.04-6.447 0-1.882.334-3.546 1.002-4.992A7.758 7.758 0 0 1 64.147 13a7.611 7.611 0 0 1 4.224-1.183c1.71 0 3.076.424 4.097 1.272 1.022.848 1.532 1.908 1.531 3.179.01.469-.16.924-.475 1.271-.317.354-.814.531-1.496.531a2.374 2.374 0 0 1-.79-.107 3.71 3.71 0 0 1-.368-.14l-.599-3.356a2.41 2.41 0 0 0-.615-.185 5.606 5.606 0 0 0-1.39-.16c-1.597 0-2.71.513-3.341 1.537-.632 1.025-.948 2.726-.95 5.105 0 2.378.42 4.067 1.264 5.068.844 1 2.228 1.501 4.154 1.501.616.002 1.232-.045 1.841-.142.464-.069.922-.17 1.373-.3.221-.062.438-.139.65-.23l.493 1.2c0 .049-.26.262-.775.637M39.941 13.754c-1.174-1.294-2.721-1.942-4.643-1.943a7.074 7.074 0 0 0-2.99.584 8.588 8.588 0 0 0-2.005 1.216l.068 1.38a11.864 11.864 0 0 1 3.343-.53c1.549 0 2.645.488 3.29 1.465.644.978.967 2.608.968 4.892 0 2.472-.375 4.237-1.127 5.297-.751 1.06-1.856 1.59-3.315 1.59a8.854 8.854 0 0 1-3.168-.6l-.282 1.342c1.08 1.013 2.44 1.52 4.082 1.52 1.339.007 2.648-.4 3.748-1.167 1.138-.776 2.053-1.93 2.744-3.461.691-1.53 1.038-3.39 1.039-5.58 0-2.712-.587-4.713-1.76-6.005"
      fill="#fff" />
    <path d="M22.258 0h-4.586v29.791h4.586V0Z" fill="#E8476F" />
    <path d="M30.841 3.021h-4.586v26.77h4.586V3.021Z" fill="#FDD068" />
    <path d="M22.258 7.567h-4.586v22.224h4.586V7.567Z" fill="#8DC9E6" />
    <path d="M30.841 13.654h-4.586v16.139h4.586V13.654ZM22.258 24.152h-4.586v5.64h4.586v-5.64Z" fill="#50B693" />
  </g>
  <defs>
    <clipPath id="a">
      <path fill="#fff" d="M0 0h74v30H0z" />
    </clipPath>
  </defs>
</svg>