<svg width="303" height="220" viewBox="0 0 303 220" fill="none" xmlns="http://www.w3.org/2000/svg">
<g clip-path="url(#clip0_125_689)">
<path d="M255.933 99.4502L226.207 95.784L227.836 69.7131H255.933V99.4502Z" fill="#FFB6B6"/>
<path d="M272.847 131.307C272.38 131.306 271.924 131.168 271.534 130.911C271.144 130.654 270.838 130.288 270.654 129.859L266.526 120.225L278.76 120.268L287.167 111.375L291.198 120.792C291.442 121.368 291.451 122.018 291.222 122.601C290.993 123.185 290.545 123.655 289.974 123.912L273.815 131.1C273.511 131.236 273.181 131.306 272.847 131.307Z" fill="#E6E6E6"/>
<path d="M276.902 121.482C276.8 121.482 276.698 121.479 276.596 121.473L266.766 120.917L266.5 120.32L266.685 120.237L287.132 111.128L287.399 111.726L281.143 119.458C280.631 120.09 279.984 120.599 279.251 120.949C278.517 121.299 277.715 121.481 276.902 121.482Z" fill="#CCCCCC"/>
<path d="M259.589 32.291L230.565 32.6539C230.021 32.6533 229.498 32.4365 229.113 32.0511C228.728 31.6658 228.511 31.1433 228.511 30.5984V21.0051C228.511 16.9464 230.122 13.054 232.991 10.1841C235.86 7.31421 239.751 5.7019 243.808 5.7019C247.865 5.7019 251.756 7.31421 254.625 10.1841C257.494 13.054 259.105 16.9464 259.105 21.0051L261.644 30.2354C261.643 30.7804 261.427 31.3029 261.041 31.6882C260.656 32.0735 260.134 32.2903 259.589 32.291H259.589Z" fill="#4F4F4F"/>
<path d="M273.798 117.587C273.315 117.149 272.934 116.612 272.681 116.011C272.428 115.41 272.31 114.761 272.336 114.11C272.361 113.459 272.528 112.821 272.826 112.242C273.124 111.662 273.546 111.155 274.061 110.757L269.012 95.743L276.967 97.8462L280.544 111.781C281.16 112.691 281.42 113.796 281.274 114.885C281.129 115.975 280.589 116.973 279.756 117.689C278.923 118.406 277.856 118.792 276.757 118.773C275.659 118.754 274.606 118.332 273.798 117.587V117.587Z" fill="#FFB6B6"/>
<path d="M239.385 214.161L233.427 213.194L234.321 189.748L243.113 191.174L239.385 214.161Z" fill="#FFB6B6"/>
<path d="M269.075 201.731L263.687 204.45L249.416 183.732L257.368 179.718L269.075 201.731Z" fill="#FFB6B6"/>
<path d="M243.681 32.5544C249.532 32.5544 254.275 27.8096 254.275 21.9566C254.275 16.1036 249.532 11.3588 243.681 11.3588C237.83 11.3588 233.087 16.1036 233.087 21.9566C233.087 27.8096 237.83 32.5544 243.681 32.5544Z" fill="#FFB8B8"/>
<path d="M252.069 194.197L227.259 130.909C218.38 106.644 226.313 89.9212 226.394 89.7554L226.435 89.674L226.52 89.643C227.539 93.6099 250.639 93.3399 255.933 87.2295C259.023 89.826 263.135 95.9395 264.016 103.245C264.937 111.083 264.239 119.026 261.965 126.582L252.192 159.725L264.283 186.973L252.069 194.197Z" fill="#4F4F4F"/>
<path d="M240.105 154.941L231.147 200.384L243.078 202.634L250.585 163.299L240.105 154.941Z" fill="#4F4F4F"/>
<path d="M227.021 77.4529C228.93 77.9629 247.796 85.7401 256.747 77.8603L263.771 43.1681L255.356 40.5129L252.419 36.9405C252.101 36.5531 251.7 36.2424 251.246 36.0313C250.791 35.8203 250.295 35.7145 249.794 35.7217L239.355 35.8613C238.893 35.868 238.438 35.9702 238.017 36.1613C237.597 36.3525 237.22 36.6286 236.912 36.9722L233.568 40.7026L226.015 42.4612L227.021 77.4529Z" fill="#8DC9E6"/>
<path d="M260.568 45.874L262.855 42.8275C262.855 42.8275 267.045 43.9289 269.174 49.9354C271.303 55.9419 280.025 103.931 280.025 103.931L270.632 108.294L257.913 65.8818L260.568 45.874Z" fill="#8DC9E6"/>
<path d="M185.3 103.025C185.388 102.379 185.618 101.761 185.971 101.213C186.325 100.666 186.794 100.203 187.345 99.8562C187.897 99.5098 188.518 99.2886 189.165 99.2082C189.811 99.1278 190.467 99.1902 191.087 99.3909L200.634 86.7531L203.383 94.5116L193.895 105.323C193.491 106.344 192.725 107.181 191.744 107.674C190.763 108.168 189.636 108.284 188.575 108C187.514 107.717 186.595 107.053 185.991 106.136C185.387 105.219 185.141 104.111 185.299 103.025H185.3Z" fill="#FFB6B6"/>
<path d="M229.371 45.2016L226.207 42.4202C226.207 42.4202 222.894 43.2564 220.765 49.2629C218.636 55.2694 191.463 95.5388 191.463 95.5388L200.856 99.9016L232.027 65.2077L229.371 45.2016Z" fill="#8DC9E6"/>
<path d="M254.721 21.2574H239.914C239.636 21.2572 239.367 21.1554 239.158 20.9712C238.95 20.787 238.816 20.5331 238.781 20.257L238.589 18.7229C238.57 18.5755 238.504 18.4382 238.401 18.3316C238.298 18.225 238.162 18.1549 238.016 18.1319C237.869 18.1089 237.719 18.1343 237.588 18.2041C237.456 18.274 237.352 18.3846 237.289 18.5192L236.318 20.5983C236.225 20.7949 236.079 20.9611 235.896 21.0777C235.713 21.1943 235.5 21.2565 235.283 21.257H233.034C232.732 21.2575 232.442 21.1377 232.228 20.9242C232.014 20.7106 231.893 20.4206 231.893 20.1181C231.893 20.0807 231.894 20.0433 231.898 20.006L232.785 10.7391C232.804 10.5409 232.874 10.3511 232.988 10.1881C233.102 10.0251 233.257 9.89447 233.436 9.80906C240.217 6.64226 247.094 6.64633 253.875 9.82128C254.047 9.9022 254.197 10.0247 254.309 10.1778C254.422 10.3308 254.495 10.5096 254.521 10.6979L255.85 19.9527C255.873 20.1147 255.862 20.2798 255.815 20.4369C255.769 20.5939 255.69 20.7392 255.583 20.8629C255.476 20.9865 255.343 21.0857 255.194 21.1535C255.045 21.2214 254.884 21.2564 254.72 21.2562L254.721 21.2574Z" fill="#4F4F4F"/>
<path d="M15.8692 7.33081C15.3542 7.33027 14.8601 7.53406 14.4951 7.89748C14.1301 8.2609 13.9242 8.75429 13.9223 9.26943L13.4438 217.201C13.4433 217.716 13.647 218.21 14.0103 218.575C14.3736 218.94 14.8668 219.146 15.3817 219.148L182.828 219.534C183.343 219.534 183.838 219.33 184.203 218.967C184.567 218.603 184.773 218.11 184.775 217.595L185.254 9.66334C185.254 9.14813 185.05 8.65373 184.687 8.28862C184.324 7.92351 183.83 7.71749 183.315 7.71577L15.8692 7.33081Z" fill="#E6E6E6"/>
<path d="M22.0725 13.5638C21.5575 13.5633 21.0634 13.7671 20.6984 14.1305C20.3335 14.4939 20.1275 14.9873 20.1257 15.5025L19.6777 210.997C19.6772 211.512 19.8809 212.006 20.2442 212.371C20.6075 212.736 21.1007 212.942 21.6156 212.944L176.63 213.301C177.145 213.302 177.639 213.098 178.004 212.734C178.369 212.371 178.575 211.878 178.577 211.362L179.025 15.8683C179.025 15.3531 178.822 14.8587 178.458 14.4935C178.095 14.1284 177.601 13.9224 177.086 13.9207L22.0725 13.5638Z" fill="white"/>
<path d="M156.494 98.4551L42.2738 98.1924C41.5069 98.1817 40.7752 97.869 40.2372 97.3221C39.6993 96.7752 39.3986 96.0381 39.4004 95.2709C39.4022 94.5036 39.7062 93.768 40.2467 93.2236C40.7871 92.6791 41.5203 92.3698 42.2873 92.3627L156.507 92.6258C157.274 92.6365 158.006 92.9492 158.544 93.4961C159.082 94.043 159.383 94.78 159.381 95.5473C159.379 96.3146 159.075 97.0502 158.534 97.5946C157.994 98.1391 157.261 98.4484 156.494 98.4555V98.4551Z" fill="#E6E6E6"/>
<path d="M157.6 44.1425L81.822 43.9682C80.7543 43.9657 79.8919 42.6585 79.8955 41.0486C79.8992 39.4388 80.7677 38.1356 81.8354 38.1381L157.613 38.3124C158.681 38.3149 159.543 39.6221 159.54 41.2319C159.536 42.8418 158.667 44.1466 157.6 44.1425Z" fill="#E6E6E6"/>
<path d="M157.561 60.8548L81.7834 60.6804C80.7157 60.678 79.8533 59.3708 79.8569 57.7609C79.8606 56.151 80.7292 54.8479 81.7969 54.8503L157.575 55.0247C158.642 55.0271 159.505 56.3343 159.501 57.9442C159.497 59.5541 158.629 60.8572 157.561 60.8548Z" fill="#E6E6E6"/>
<path d="M156.449 117.305L42.2289 117.042C41.462 117.031 40.7302 116.719 40.1923 116.172C39.6544 115.625 39.3537 114.888 39.3555 114.12C39.3572 113.353 39.6613 112.618 40.2018 112.073C40.7422 111.529 41.4754 111.219 42.2423 111.212L156.462 111.475C157.235 111.468 157.979 111.768 158.531 112.31C159.082 112.851 159.396 113.59 159.403 114.363C159.41 115.136 159.11 115.88 158.569 116.432C158.027 116.984 157.289 117.298 156.516 117.305C156.494 117.305 156.471 117.305 156.449 117.305Z" fill="#E6E6E6"/>
<path d="M156.408 136.154L42.1879 135.891C41.421 135.881 40.6892 135.568 40.1513 135.021C39.6134 134.474 39.3127 133.737 39.3145 132.97C39.3162 132.202 39.6203 131.467 40.1607 130.922C40.7012 130.378 41.4344 130.069 42.2013 130.062L156.421 130.325C156.804 130.32 157.185 130.392 157.54 130.535C157.896 130.677 158.219 130.889 158.493 131.157C158.767 131.425 158.985 131.745 159.135 132.097C159.285 132.45 159.364 132.829 159.368 133.212C159.371 133.595 159.299 133.975 159.156 134.331C159.013 134.686 158.801 135.01 158.532 135.283C158.263 135.556 157.944 135.774 157.591 135.924C157.238 136.073 156.86 136.152 156.476 136.155C156.454 136.155 156.431 136.155 156.408 136.154V136.154Z" fill="#E6E6E6"/>
<path d="M156.364 155.004L42.1439 154.741C41.377 154.731 40.6453 154.418 40.1073 153.871C39.5694 153.324 39.2687 152.587 39.2705 151.82C39.2723 151.053 39.5764 150.317 40.1168 149.773C40.6572 149.228 41.3904 148.919 42.1574 148.912L156.377 149.175C157.15 149.168 157.893 149.469 158.444 150.01C158.994 150.552 159.308 151.29 159.315 152.062C159.323 152.835 159.023 153.578 158.483 154.13C157.942 154.682 157.205 154.996 156.433 155.005C156.41 155.005 156.387 155.005 156.364 155.004Z" fill="#E6E6E6"/>
<path d="M100.126 173.039L42.1 172.776C41.3331 172.766 40.6013 172.453 40.0634 171.906C39.5255 171.359 39.2248 170.622 39.2266 169.855C39.2283 169.087 39.5324 168.352 40.0728 167.807C40.6133 167.263 41.3465 166.954 42.1134 166.947L100.14 167.21C100.912 167.204 101.654 167.504 102.205 168.046C102.755 168.587 103.069 169.325 103.076 170.097C103.083 170.869 102.784 171.613 102.244 172.165C101.704 172.716 100.967 173.031 100.195 173.04C100.172 173.04 100.149 173.04 100.126 173.039Z" fill="#E6E6E6"/>
<path d="M100.083 191.889L42.057 191.626C41.2901 191.616 40.5584 191.303 40.0204 190.756C39.4825 190.209 39.1818 189.472 39.1836 188.705C39.1854 187.938 39.4894 187.202 40.0299 186.658C40.5703 186.113 41.3035 185.804 42.0705 185.797L100.097 186.06C100.869 186.054 101.611 186.355 102.162 186.896C102.712 187.437 103.026 188.175 103.033 188.947C103.04 189.719 102.741 190.463 102.201 191.015C101.661 191.566 100.924 191.881 100.152 191.89C100.129 191.89 100.106 191.89 100.083 191.889Z" fill="#E6E6E6"/>
<path d="M132.549 21.8892V8.01958C132.572 6.98934 132.391 5.96473 132.018 5.00425C131.645 4.04377 131.086 3.16622 130.374 2.42171C129.662 1.6772 128.81 1.08031 127.867 0.665116C126.924 0.249925 125.909 0.0245618 124.879 0.00189813C123.85 -0.0207656 122.825 0.159716 121.865 0.533031C120.905 0.906345 120.028 1.46518 119.284 2.17764C118.539 2.8901 117.943 3.74222 117.528 4.68536C117.113 5.6285 116.887 6.64418 116.865 7.67441H118.591C118.652 6.09316 119.323 4.59706 120.462 3.49927C121.602 2.40147 123.121 1.78709 124.703 1.78472H124.793C126.417 1.81076 127.964 2.48068 129.095 3.64731C130.226 4.81395 130.847 6.38188 130.823 8.00667V22C130.809 23.0796 130.371 24.1103 129.603 24.8692C128.835 25.6281 127.8 26.0543 126.72 26.0558H126.67C125.58 26.0406 124.541 25.5933 123.781 24.8121C123.021 24.0309 122.602 22.9799 122.616 21.8899L122.626 8.11353C122.624 7.56507 122.84 7.03837 123.227 6.64928C123.613 6.2602 124.138 6.0406 124.686 6.03881C125.235 6.03701 125.761 6.25316 126.15 6.63971C126.539 7.02626 126.758 7.55154 126.76 8.09999V12.1025C126.76 12.3314 126.851 12.551 127.013 12.7129C127.175 12.8748 127.394 12.9658 127.623 12.9658C127.852 12.9658 128.072 12.8748 128.233 12.7129C128.395 12.551 128.486 12.3314 128.486 12.1025V8.08631C128.485 7.58807 128.386 7.09487 128.195 6.63488C128.004 6.17489 127.723 5.75712 127.371 5.40541C127.018 5.05371 126.599 4.77496 126.139 4.58508C125.678 4.39521 125.185 4.29792 124.687 4.29878C124.189 4.29963 123.696 4.39862 123.236 4.59008C122.776 4.78154 122.359 5.06174 122.007 5.41465C121.656 5.76757 121.377 6.18631 121.187 6.64695C120.997 7.1076 120.9 7.60113 120.901 8.09937L120.892 21.8788C120.875 23.4249 121.472 24.9145 122.551 26.021C123.631 27.1275 125.105 27.7604 126.65 27.7809H126.722C128.256 27.7786 129.727 27.1726 130.817 26.0939C131.908 25.0153 132.53 23.5507 132.55 22.0166C132.549 21.9721 132.549 21.927 132.549 21.8892Z" fill="#8DC9E6"/>
<path d="M156.168 179.594C156.171 181.891 155.762 184.169 154.96 186.321C154.595 187.307 154.149 188.26 153.624 189.17C151.937 192.115 149.503 194.561 146.568 196.263C143.633 197.965 140.3 198.861 136.908 198.861C133.516 198.861 130.183 197.965 127.248 196.263C124.313 194.561 121.879 192.115 120.192 189.17C120.021 188.874 119.86 188.574 119.706 188.269C118.397 185.671 117.693 182.81 117.647 179.9C117.601 176.991 118.214 174.109 119.44 171.471C120.666 168.833 122.474 166.506 124.727 164.666C126.98 162.827 129.62 161.521 132.45 160.848C135.279 160.175 138.225 160.151 141.064 160.78C143.904 161.408 146.565 162.671 148.847 164.475C151.13 166.278 152.974 168.576 154.242 171.194C155.51 173.813 156.168 176.684 156.168 179.594H156.168Z" fill="#E4E4E4"/>
<path d="M137.909 182.847C139.943 182.847 141.591 181.197 141.591 179.163C141.591 177.129 139.943 175.479 137.909 175.479C135.876 175.479 134.227 177.129 134.227 179.163C134.227 181.197 135.876 182.847 137.909 182.847Z" fill="#8DC9E6"/>
<path d="M119.707 188.269C121.329 186.515 123.498 183.73 125.532 185.742C126.553 186.691 128.15 189.043 129.68 187.506L141.622 175.558C141.847 175.336 142.114 175.161 142.408 175.044C142.701 174.927 143.015 174.869 143.331 174.875C143.646 174.88 143.958 174.949 144.247 175.077C144.536 175.205 144.796 175.389 145.013 175.619L154.96 186.321C154.596 187.307 154.149 188.26 153.624 189.17H120.192L119.707 188.269Z" fill="#3F3D56"/>
<path d="M69.8418 48.8322C69.8447 51.1289 69.4353 53.4074 68.6331 55.5594C68.2688 56.5451 67.822 57.4982 67.2973 58.4086C65.6105 61.3531 63.1765 63.7998 60.2413 65.5013C57.3061 67.2029 53.9738 68.0989 50.5814 68.0989C47.189 68.0989 43.8568 67.2029 40.9216 65.5013C37.9864 63.7998 35.5524 61.3531 33.8656 58.4086C33.6948 58.1125 33.5329 57.8119 33.3798 57.507C32.0706 54.9089 31.3665 52.0479 31.3203 49.1387C31.2741 46.2295 31.8871 43.3476 33.1133 40.7092C34.3394 38.0709 36.1469 35.7445 38.4001 33.9047C40.6533 32.065 43.2937 30.7595 46.1232 30.0863C48.9527 29.4131 51.8979 29.3897 54.7378 30.0178C57.5777 30.6459 60.2385 31.9091 62.5207 33.7128C64.8028 35.5165 66.6471 37.8138 67.915 40.4323C69.183 43.0508 69.8417 45.9226 69.8418 48.8322H69.8418Z" fill="#E4E4E4"/>
<path d="M51.5826 52.0849C53.6162 52.0849 55.2648 50.4356 55.2648 48.4012C55.2648 46.3669 53.6162 44.7177 51.5826 44.7177C49.549 44.7177 47.9004 46.3669 47.9004 48.4012C47.9004 50.4356 49.549 52.0849 51.5826 52.0849Z" fill="#8DC9E6"/>
<path d="M33.3799 57.5069C35.0022 55.753 37.171 52.9683 39.2051 54.9804C40.226 55.9295 41.8236 58.2814 43.353 56.7438L55.2958 44.7965C55.5206 44.5745 55.7875 44.3996 56.0809 44.2822C56.3742 44.1648 56.688 44.1073 57.0039 44.1129C57.3198 44.1186 57.6314 44.1874 57.9204 44.3152C58.2093 44.443 58.4698 44.6273 58.6865 44.8573L68.6331 55.5594C68.2688 56.545 67.822 57.4982 67.2973 58.4086H33.8656L33.3799 57.5069Z" fill="#3F3D56"/>
<path d="M126.036 24.4964C127.16 24.4964 128.072 23.5845 128.072 22.4596C128.072 21.3348 127.16 20.4229 126.036 20.4229C124.911 20.4229 124 21.3348 124 22.4596C124 23.5845 124.911 24.4964 126.036 24.4964Z" fill="#8DC9E6"/>
<path d="M242.444 219.621H238.569L237.877 215.961L236.106 219.621H225.828C225.335 219.621 224.855 219.463 224.458 219.171C224.062 218.879 223.768 218.468 223.622 217.997C223.475 217.527 223.483 217.022 223.643 216.556C223.804 216.09 224.109 215.687 224.515 215.407L232.723 209.737V206.036L241.356 206.552L242.444 219.621Z" fill="#4F4F4F"/>
<path d="M276.782 210.547L273.527 212.65L270.961 209.951L271.457 213.987L262.823 219.565C262.409 219.832 261.921 219.96 261.429 219.93C260.937 219.9 260.468 219.714 260.09 219.398C259.711 219.082 259.444 218.654 259.326 218.175C259.208 217.697 259.247 217.193 259.436 216.738L263.256 207.52L261.249 204.411L268.781 200.159L276.782 210.547Z" fill="#4F4F4F"/>
<path d="M303 219.185H0V220H303V219.185Z" fill="#CCCCCC"/>
</g>
<defs>
<clipPath id="clip0_125_689">
<rect width="303" height="220" fill="white"/>
</clipPath>
</defs>
</svg>
