<svg viewBox="0 0 542 279" fill="none" xmlns="http://www.w3.org/2000/svg">
  <path d="M541.28 278.938H.72a.72.72 0 0 1 0-1.438h540.56a.723.723 0 0 1 .718.719.723.723 0 0 1-.718.719Z"
    fill="#3F3D56" />
  <path
    d="M169.461 34.672a3.906 3.906 0 0 0 3.909-3.903 3.906 3.906 0 0 0-3.909-3.903 3.906 3.906 0 0 0-3.909 3.903 3.906 3.906 0 0 0 3.909 3.903ZM153.882 34.672a3.906 3.906 0 0 0 3.909-3.903 3.906 3.906 0 0 0-3.909-3.903 3.906 3.906 0 0 0-3.909 3.903 3.906 3.906 0 0 0 3.909 3.903ZM138.303 34.672a3.906 3.906 0 0 0 3.909-3.903 3.906 3.906 0 0 0-3.909-3.903 3.906 3.906 0 0 0-3.908 3.903 3.906 3.906 0 0 0 3.908 3.903ZM122.724 34.672a3.906 3.906 0 0 0 3.909-3.903 3.906 3.906 0 0 0-3.909-3.903 3.907 3.907 0 0 0-3.909 3.903 3.907 3.907 0 0 0 3.909 3.903ZM169.461 50.967a3.906 3.906 0 0 0 3.909-3.903 3.906 3.906 0 0 0-3.909-3.903 3.906 3.906 0 0 0-3.909 3.903 3.906 3.906 0 0 0 3.909 3.903ZM153.882 50.967a3.906 3.906 0 0 0 3.909-3.903 3.906 3.906 0 0 0-3.909-3.903 3.906 3.906 0 0 0-3.909 3.903 3.906 3.906 0 0 0 3.909 3.903ZM138.303 50.967a3.906 3.906 0 0 0 3.909-3.903 3.906 3.906 0 0 0-3.909-3.903 3.906 3.906 0 0 0-3.908 3.903 3.906 3.906 0 0 0 3.908 3.903ZM122.724 50.967a3.906 3.906 0 0 0 3.909-3.903 3.906 3.906 0 0 0-3.909-3.903 3.907 3.907 0 0 0-3.909 3.903 3.907 3.907 0 0 0 3.909 3.903ZM169.461 67.263a3.906 3.906 0 0 0 3.909-3.903 3.906 3.906 0 0 0-3.909-3.903 3.906 3.906 0 0 0-3.909 3.903 3.906 3.906 0 0 0 3.909 3.903ZM153.882 67.263a3.906 3.906 0 0 0 3.909-3.903 3.906 3.906 0 0 0-3.909-3.903 3.906 3.906 0 0 0-3.909 3.903 3.906 3.906 0 0 0 3.909 3.903ZM138.303 67.263a3.906 3.906 0 0 0 3.909-3.903 3.906 3.906 0 0 0-3.909-3.903 3.906 3.906 0 0 0-3.908 3.903 3.906 3.906 0 0 0 3.908 3.903ZM122.724 67.263a3.906 3.906 0 0 0 3.909-3.903 3.906 3.906 0 0 0-3.909-3.903 3.907 3.907 0 0 0-3.909 3.903 3.907 3.907 0 0 0 3.909 3.903ZM169.461 83.558a3.906 3.906 0 0 0 3.909-3.903 3.906 3.906 0 0 0-3.909-3.903 3.906 3.906 0 0 0-3.909 3.904 3.906 3.906 0 0 0 3.909 3.902ZM153.882 83.558a3.906 3.906 0 0 0 3.909-3.903 3.906 3.906 0 0 0-3.909-3.903 3.906 3.906 0 0 0-3.909 3.904 3.906 3.906 0 0 0 3.909 3.902ZM138.303 83.558a3.906 3.906 0 0 0 3.909-3.903 3.906 3.906 0 0 0-3.909-3.903 3.906 3.906 0 0 0-3.908 3.904 3.906 3.906 0 0 0 3.908 3.902ZM122.724 83.558a3.906 3.906 0 0 0 3.909-3.903 3.906 3.906 0 0 0-3.909-3.903 3.907 3.907 0 0 0-3.909 3.904 3.907 3.907 0 0 0 3.909 3.902ZM169.461 99.854a3.906 3.906 0 0 0 3.909-3.903 3.906 3.906 0 0 0-3.909-3.903 3.906 3.906 0 0 0-3.909 3.903 3.906 3.906 0 0 0 3.909 3.903ZM153.882 99.854a3.906 3.906 0 0 0 3.909-3.903 3.906 3.906 0 0 0-3.909-3.903 3.906 3.906 0 0 0-3.909 3.903 3.906 3.906 0 0 0 3.909 3.903ZM138.303 99.854a3.906 3.906 0 0 0 3.909-3.903 3.906 3.906 0 0 0-3.909-3.903 3.906 3.906 0 0 0-3.908 3.903 3.906 3.906 0 0 0 3.908 3.903ZM122.724 99.854a3.906 3.906 0 0 0 3.909-3.903 3.906 3.906 0 0 0-3.909-3.903 3.907 3.907 0 0 0-3.909 3.903 3.907 3.907 0 0 0 3.909 3.903ZM169.461 116.15a3.906 3.906 0 0 0 3.909-3.903 3.906 3.906 0 0 0-3.909-3.903 3.906 3.906 0 0 0-3.909 3.903 3.906 3.906 0 0 0 3.909 3.903ZM153.882 116.15a3.906 3.906 0 0 0 3.909-3.903 3.906 3.906 0 0 0-3.909-3.903 3.906 3.906 0 0 0-3.909 3.903 3.906 3.906 0 0 0 3.909 3.903ZM138.303 116.15a3.906 3.906 0 0 0 3.909-3.903 3.906 3.906 0 0 0-3.909-3.903 3.905 3.905 0 0 0-3.908 3.903 3.906 3.906 0 0 0 3.908 3.903ZM122.724 116.15a3.906 3.906 0 0 0 3.909-3.903 3.906 3.906 0 0 0-3.909-3.903 3.906 3.906 0 0 0-3.909 3.903 3.907 3.907 0 0 0 3.909 3.903Z"
    fill="#F2F2F2" />
  <path
    d="M135.113 218.723v1.207a7.543 7.543 0 0 0 2.215 5.333 7.57 7.57 0 0 0 5.34 2.212h54.401a7.565 7.565 0 0 0 5.342-2.211 7.542 7.542 0 0 0 2.214-5.334v-1.207a7.482 7.482 0 0 0-1.753-4.828 7.793 7.793 0 0 0-1.275-1.207s-29.909-.676-29.909-1.509h-29.02a7.568 7.568 0 0 0-5.339 2.213 7.546 7.546 0 0 0-2.216 5.331Z"
    fill="#CCC" />
  <path d="M174.235 227.175h-7.858v50.697h7.858v-50.697Z" fill="#CCC" />
  <path
    d="M196.6 277.597c0 .847-11.907.328-26.596.328-14.688 0-26.596.519-26.596-.328 0-.848 11.908-7.571 26.596-7.571 14.689 0 26.596 6.723 26.596 7.571Z"
    fill="#CCC" />
  <path
    d="M185.797 217.699a6.484 6.484 0 0 0 1.111-5.372 6.483 6.483 0 0 0-3.412-4.3l-16.655-56.664-12.682 6.202 20.359 53.748a6.51 6.51 0 0 0-.16 4.629 6.522 6.522 0 0 0 2.958 3.567 6.542 6.542 0 0 0 4.585.704 6.528 6.528 0 0 0 3.896-2.514Z"
    fill="#A0616A" />
  <path
    d="m170.614 160.826-14.194 3.836a2.9 2.9 0 0 1-2.392-.397 2.898 2.898 0 0 1-1.261-2.068l-1.715-14.538a8.063 8.063 0 0 1 .821-6.114 8.086 8.086 0 0 1 4.906-3.751 8.099 8.099 0 0 1 6.126.804 8.075 8.075 0 0 1 3.769 4.887l5.848 13.372a2.903 2.903 0 0 1-.807 3.398 2.914 2.914 0 0 1-1.101.571Z"
    fill="#FDD068" />
  <path d="M189.506 271.654h7.411l3.525-19.19h-10.937l.001 19.19Z" fill="#A0616A" />
  <path
    d="m187.616 269.239 14.594-.001a9.302 9.302 0 0 1 8.593 5.732 9.286 9.286 0 0 1 .708 3.554v.302l-23.895.001v-9.588ZM198.108 261.364c-.086 0-.173-.004-.26-.013l-10.255-.745a2.717 2.717 0 0 1-2.303-3.639l13.725-30.79a2.115 2.115 0 0 0-.673-2.363 2.089 2.089 0 0 0-.782-.388c-6.454-1.684-23.013-6.17-37.347-11.418-6.141-2.248-10.009-5.498-11.496-9.658-1.961-5.484.94-10.486 1.064-10.695l.097-.165 13.488 1.224 14.623 1.242 32.044 17.158a12.11 12.11 0 0 1 5.331 15.561l-14.774 33.079a2.722 2.722 0 0 1-2.482 1.61Z"
    fill="#2F2E41" />
  <path
    d="M165.712 131.799c8.199 0 14.846-6.636 14.846-14.823 0-8.187-6.647-14.824-14.846-14.824s-14.846 6.637-14.846 14.824c0 8.187 6.647 14.823 14.846 14.823ZM185.275 271.051l7.411-.001 3.526-19.19h-10.938l.001 19.191Z"
    fill="#A0616A" />
  <path
    d="M183.385 268.635h14.594a9.301 9.301 0 0 1 8.593 5.732 9.282 9.282 0 0 1 .708 3.554v.302h-23.895v-9.588ZM193.877 263.174c-.087 0-.173-.004-.26-.012l-10.256-.746a2.714 2.714 0 0 1-2.302-3.639l13.725-30.789a2.1 2.1 0 0 0-.119-1.689 2.087 2.087 0 0 0-1.337-1.062c-6.453-1.685-23.012-6.17-37.347-11.418-6.141-2.249-10.009-5.498-11.496-9.658-1.96-5.484.94-10.486 1.065-10.696l.097-.164 13.488 1.224 14.622 1.242 32.045 17.157a12.13 12.13 0 0 1 5.712 6.74 12.103 12.103 0 0 1-.382 8.822l-14.773 33.079a2.714 2.714 0 0 1-2.482 1.609Z"
    fill="#2F2E41" />
  <path
    d="m170.29 140.205-15.716-5.432s-9.866 7.569-5.126 26.344a46.42 46.42 0 0 1-2.055 29.163 30.21 30.21 0 0 1-1.583 3.338s17.529 21.124 33.849 5.432l-6.347-30.478s9.974-20.219-3.022-28.367ZM167.555 132.304c-2.113-3.158-3.781-7.537-1.454-10.542 2.296-2.966 6.825-2.529 10.342-3.841 4.899-1.828 7.74-7.574 6.854-12.72-.886-5.146-5.023-9.412-9.952-11.157-4.928-1.746-10.486-1.178-15.313.832-5.941 2.474-11.038 7.261-13.175 13.324-2.137 6.063-.995 13.343 3.439 18.003 4.753 4.996 12.213 6.328 19.115 6.247"
    fill="#2F2E41" />
  <path
    d="M153.745 105.366c-2.663 2.164-6.725 1.203-9.583-.696-2.858-1.9-5.177-4.604-8.269-6.094-5.452-2.625-12.043-.88-17.349 2.028-5.306 2.908-10.01 6.926-15.614 9.208-5.605 2.282-12.756 2.395-17-1.914a15.508 15.508 0 0 0-.245 9.362 15.53 15.53 0 0 0 5.191 7.8 15.565 15.565 0 0 0 17.848 1.168c6.141-3.735 9.533-11.566 16.42-13.627 3.812-1.141 7.904-.222 11.757.773 3.852.995 7.868 2.07 11.756 1.223 3.887-.847 7.523-4.335 7.029-8.277l-1.941-.954Z"
    fill="#2F2E41" />
  <path
    d="M202.073 245.042a101.008 101.008 0 0 1 0-30.766 2.595 2.595 0 0 1 2.562-2.176h24.101c.39-.001.776.086 1.128.256a2.613 2.613 0 0 1 1.388 2.961 61.657 61.657 0 0 0 0 28.684c.094.385.099.786.015 1.174a2.615 2.615 0 0 1-1.403 1.786 2.58 2.58 0 0 1-1.128.257h-24.101a2.598 2.598 0 0 1-2.562-2.176Z"
    fill="#FDD068" />
  <path
    d="M221.319 226.993h-12.648a1.812 1.812 0 0 1-1.813-1.81v-.708a1.812 1.812 0 0 1 1.813-1.81h12.648a1.812 1.812 0 0 1 1.813 1.81v.708a1.81 1.81 0 0 1-1.813 1.81ZM221.319 234.444h-12.648a1.81 1.81 0 0 1-1.813-1.811v-.708a1.812 1.812 0 0 1 1.813-1.81h12.648a1.812 1.812 0 0 1 1.813 1.81v.708a1.815 1.815 0 0 1-1.813 1.811Z"
    fill="#fff" />
  <path
    d="M208.411 214.984a6.486 6.486 0 0 0-.268-5.48 6.503 6.503 0 0 0-4.38-3.312l-30.305-50.712-10.728 9.169 33.162 46.965a6.51 6.51 0 0 0 1.003 4.522 6.54 6.54 0 0 0 8.373 2.254 6.524 6.524 0 0 0 3.143-3.406Z"
    fill="#A0616A" />
  <path
    d="m179.479 163.701-12.784 7.256a2.917 2.917 0 0 1-3.469-.443 2.916 2.916 0 0 1-.684-1.033l-5.299-13.649a8.062 8.062 0 0 1-.734-6.125 8.073 8.073 0 0 1 3.811-4.855 8.098 8.098 0 0 1 6.133-.751 8.087 8.087 0 0 1 4.873 3.793l9.008 11.489a2.908 2.908 0 0 1-.855 4.318Z"
    fill="#2F2E41" />
  <path
    d="M315.506 181.515H70.096a3.93 3.93 0 0 0-2.777 1.149 3.92 3.92 0 0 0 0 5.548 3.935 3.935 0 0 0 2.778 1.149h6.951v85.401c0 1.04.414 2.038 1.15 2.774a3.93 3.93 0 0 0 6.708-2.774v-77.863l44.047 79.715a3.933 3.933 0 0 0 5.364 1.429 3.924 3.924 0 0 0 1.442-5.353l-46.045-83.329h210.378v.051l-46.016 83.278a3.918 3.918 0 0 0 1.438 5.359 3.93 3.93 0 0 0 5.366-1.435l39.212-70.964v69.112a3.92 3.92 0 0 0 1.151 2.774 3.93 3.93 0 0 0 6.707-2.774v-83.333l1.143-2.068h6.413a3.935 3.935 0 0 0 2.778-1.149 3.92 3.92 0 0 0-2.778-6.697Z"
    fill="#3F3D56" />
  <path
    d="M213.957 179.101h-47.752a2.113 2.113 0 1 0 0 4.224h47.752a2.113 2.113 0 0 0 2.116-2.112 2.113 2.113 0 0 0-2.116-2.112Z"
    fill="#CCC" />
  <path
    d="M245.994 183.325h-53.797a3.926 3.926 0 0 1-3.929-3.923v-29.573a3.928 3.928 0 0 1 3.929-3.923h53.797a3.935 3.935 0 0 1 3.929 3.923v29.573a3.935 3.935 0 0 1-3.929 3.923Z"
    fill="#CCC" />
  <path
    d="M219.095 168.237a3.624 3.624 0 0 0 3.627-3.621c0-2-1.624-3.622-3.627-3.622a3.625 3.625 0 0 0-3.627 3.622c0 2 1.624 3.621 3.627 3.621Z"
    fill="#fff" />
  <path
    d="M287.048 110.461V4.539A4.545 4.545 0 0 1 291.595 0h83.855a4.555 4.555 0 0 1 3.213 1.331 4.54 4.54 0 0 1 1.333 3.208v105.922a4.54 4.54 0 0 1-1.333 3.208A4.553 4.553 0 0 1 375.45 115h-83.855a4.545 4.545 0 0 1-4.547-4.539Zm4.547-109.452a3.535 3.535 0 0 0-3.536 3.53v105.922a3.534 3.534 0 0 0 3.536 3.531h83.855a3.543 3.543 0 0 0 2.499-1.036 3.53 3.53 0 0 0 1.037-2.495V4.539a3.532 3.532 0 0 0-1.037-2.495 3.543 3.543 0 0 0-2.499-1.035h-83.855Z"
    fill="#E6E6E6" />
  <path
    d="M338.225 48.644V26.895a2.277 2.277 0 0 1 2.273-2.27h18.458a2.277 2.277 0 0 1 2.273 2.27v21.749a2.277 2.277 0 0 1-2.273 2.27h-18.458a2.277 2.277 0 0 1-2.273-2.27Z"
    fill="#FDD068" />
  <path
    d="M302.359 58.732v-21.75a2.272 2.272 0 0 1 2.273-2.269h18.458a2.277 2.277 0 0 1 2.273 2.27v21.749a2.277 2.277 0 0 1-2.273 2.27h-18.458a2.272 2.272 0 0 1-2.273-2.27Z"
    fill="#CCC" />
  <path
    d="M331.153 89.5V67.75c0-.601.24-1.178.666-1.604a2.279 2.279 0 0 1 1.607-.665h18.458a2.277 2.277 0 0 1 2.273 2.27v21.748c0 .602-.24 1.18-.666 1.605a2.278 2.278 0 0 1-1.607.665h-18.458a2.272 2.272 0 0 1-2.273-2.27Z"
    fill="#FF6584" />
  <path
    d="M471.923 11.037a3.907 3.907 0 0 0 3.909-3.903 3.907 3.907 0 0 0-3.909-3.903 3.906 3.906 0 0 0-3.909 3.903 3.906 3.906 0 0 0 3.909 3.903ZM471.923 26.592a3.907 3.907 0 0 0 3.909-3.903 3.907 3.907 0 0 0-3.909-3.903 3.906 3.906 0 0 0-3.909 3.903 3.906 3.906 0 0 0 3.909 3.903ZM471.923 42.148a3.907 3.907 0 0 0 3.909-3.904 3.907 3.907 0 0 0-3.909-3.902 3.906 3.906 0 0 0-3.909 3.903 3.906 3.906 0 0 0 3.909 3.903ZM471.923 57.703a3.907 3.907 0 0 0 3.909-3.903 3.907 3.907 0 0 0-3.909-3.903 3.906 3.906 0 0 0-3.909 3.903 3.906 3.906 0 0 0 3.909 3.903ZM455.602 11.037a3.906 3.906 0 0 0 3.909-3.903 3.906 3.906 0 0 0-3.909-3.903 3.906 3.906 0 0 0-3.909 3.903 3.906 3.906 0 0 0 3.909 3.903ZM455.602 26.592a3.906 3.906 0 0 0 3.909-3.903 3.906 3.906 0 0 0-3.909-3.903 3.906 3.906 0 0 0-3.909 3.903 3.906 3.906 0 0 0 3.909 3.903ZM455.602 42.148a3.906 3.906 0 0 0 3.909-3.904 3.906 3.906 0 0 0-3.909-3.902 3.906 3.906 0 0 0-3.909 3.903 3.906 3.906 0 0 0 3.909 3.903ZM455.602 57.703a3.906 3.906 0 0 0 3.909-3.903 3.906 3.906 0 0 0-3.909-3.903 3.906 3.906 0 0 0-3.909 3.903 3.906 3.906 0 0 0 3.909 3.903ZM439.282 11.037a3.906 3.906 0 0 0 3.909-3.903 3.906 3.906 0 0 0-3.909-3.903 3.906 3.906 0 0 0-3.908 3.903 3.906 3.906 0 0 0 3.908 3.903ZM439.282 26.592a3.906 3.906 0 0 0 3.909-3.903 3.906 3.906 0 0 0-3.909-3.903 3.906 3.906 0 0 0-3.908 3.903 3.906 3.906 0 0 0 3.908 3.903ZM439.282 42.148a3.906 3.906 0 0 0 3.909-3.904 3.906 3.906 0 0 0-3.909-3.902 3.906 3.906 0 0 0-3.908 3.903 3.906 3.906 0 0 0 3.908 3.903ZM439.282 57.703a3.906 3.906 0 0 0 3.909-3.903 3.906 3.906 0 0 0-3.909-3.903 3.906 3.906 0 0 0-3.908 3.903 3.906 3.906 0 0 0 3.908 3.903ZM422.962 11.037a3.906 3.906 0 0 0 3.909-3.903 3.906 3.906 0 0 0-3.909-3.903 3.906 3.906 0 0 0-3.909 3.903 3.906 3.906 0 0 0 3.909 3.903ZM422.962 26.592a3.906 3.906 0 0 0 3.909-3.903 3.906 3.906 0 0 0-3.909-3.903 3.906 3.906 0 0 0-3.909 3.903 3.906 3.906 0 0 0 3.909 3.903ZM422.962 42.148a3.906 3.906 0 0 0 3.909-3.904 3.906 3.906 0 0 0-3.909-3.902 3.906 3.906 0 0 0-3.909 3.903 3.906 3.906 0 0 0 3.909 3.903ZM422.962 57.703a3.906 3.906 0 0 0 3.909-3.903 3.906 3.906 0 0 0-3.909-3.903 3.906 3.906 0 0 0-3.909 3.903 3.906 3.906 0 0 0 3.909 3.903ZM406.642 11.037a3.906 3.906 0 0 0 3.909-3.903 3.906 3.906 0 0 0-3.909-3.903 3.906 3.906 0 0 0-3.909 3.903 3.906 3.906 0 0 0 3.909 3.903ZM406.642 26.592a3.906 3.906 0 0 0 3.909-3.903 3.906 3.906 0 0 0-3.909-3.903 3.906 3.906 0 0 0-3.909 3.903 3.906 3.906 0 0 0 3.909 3.903ZM406.642 42.148a3.906 3.906 0 0 0 3.909-3.904 3.906 3.906 0 0 0-3.909-3.902 3.906 3.906 0 0 0-3.909 3.903 3.906 3.906 0 0 0 3.909 3.903ZM406.642 57.703a3.906 3.906 0 0 0 3.909-3.903 3.906 3.906 0 0 0-3.909-3.903 3.906 3.906 0 0 0-3.909 3.903 3.906 3.906 0 0 0 3.909 3.903ZM390.322 11.037a3.906 3.906 0 0 0 3.908-3.903 3.906 3.906 0 0 0-3.908-3.903 3.906 3.906 0 0 0-3.909 3.903 3.906 3.906 0 0 0 3.909 3.903ZM390.322 26.592a3.906 3.906 0 0 0 3.908-3.903 3.906 3.906 0 0 0-3.908-3.903 3.906 3.906 0 0 0-3.909 3.903 3.906 3.906 0 0 0 3.909 3.903ZM390.322 42.148a3.906 3.906 0 0 0 3.908-3.904 3.906 3.906 0 0 0-3.908-3.902 3.906 3.906 0 0 0-3.909 3.903 3.906 3.906 0 0 0 3.909 3.903ZM390.322 57.703a3.906 3.906 0 0 0 3.908-3.903 3.906 3.906 0 0 0-3.908-3.903 3.906 3.906 0 0 0-3.909 3.903 3.906 3.906 0 0 0 3.909 3.903Z"
    fill="#F2F2F2" />
  <path
    d="M406.07 145.606a6.635 6.635 0 0 1 2.188-7.532 6.664 6.664 0 0 1 2.507-1.198c.289-.068.582-.115.877-.142l14.69-25.71-3.709-6.363 9.233-7.113 7.065 9.797a6.72 6.72 0 0 1-.158 8.032l-20.167 25.78c.073.205.136.413.187.624a6.624 6.624 0 0 1-1.002 5.336 6.654 6.654 0 0 1-11.711-1.511ZM377.409 272.13l-7.41-.001-3.525-28.54h10.937l-.002 28.541Z"
    fill="#FFB8B8" />
  <path d="M364.706 270.015h14.292v8.984h-23.29a8.977 8.977 0 0 1 5.554-8.3 9.004 9.004 0 0 1 3.444-.684Z"
    fill="#2F2E41" />
  <path d="m438.46 272.13-7.411-.001-3.525-28.54h10.937l-.001 28.541Z" fill="#FFB8B8" />
  <path d="M425.756 270.015h14.291v8.984h-23.29a8.978 8.978 0 0 1 5.555-8.3 9.004 9.004 0 0 1 3.444-.684Z"
    fill="#2F2E41" />
  <path
    d="m433.911 98.938-16.637 6.313-4.062-11.267a6.742 6.742 0 0 1 3.023-8.147 6.76 6.76 0 0 1 8.622 1.68l9.054 11.42Z"
    fill="#FDD068" />
  <path
    d="m378.049 249.014-13.953-3.178a3.008 3.008 0 0 1-2.304-3.391c5.598-35.434 10.985-56.184 24.867-82.536.194-.491 2.361-10.464 3.776-17.071a2.997 2.997 0 0 1 2.547-3.032L419 135.808a3.365 3.365 0 0 1 1.222-.184l.26.049-.003.256c-.003.264-.266.304-.365.319l-.346.054c.394.183.757.429 1.073.728 11.4 13.69 17.328 58.567 24.857 108.145a2.702 2.702 0 0 1-.788 2.201 2.994 2.994 0 0 1-2.139.966l-16.623.405a3.015 3.015 0 0 1-3.044-2.546l-11.196-64.608a2.403 2.403 0 0 0-4.531-.698c-9.033 18.369-17.457 34.254-25.753 65.947a2.995 2.995 0 0 1-3.575 2.172Z"
    fill="#2F2E41" />
  <path
    d="M391.594 143.576a3.01 3.01 0 0 1-1.26-2.142c-2.131-19.862-.646-35.406 4.537-47.52a15.09 15.09 0 0 1 10.014-8.558l13.449-.677.07.033a15.706 15.706 0 0 1 7.058 6.905c1.548 2.999 2.087 6.417 1.537 9.746-4.326 11.385-7.948 23.238-5.186 32.8a3.09 3.09 0 0 1-.292 2.404 2.958 2.958 0 0 1-1.883 1.394l-25.616 6.084a2.998 2.998 0 0 1-2.428-.469Z"
    fill="#FDD068" />
  <path
    d="M385.804 115.072 360.01 94.753a6.384 6.384 0 0 1-.627.185 6.678 6.678 0 0 1-5.33-1.021 6.587 6.587 0 0 1-2.796-4.668 6.644 6.644 0 0 1 .954-4.269 6.66 6.66 0 0 1 3.403-2.755 6.663 6.663 0 0 1 5.421.416 6.645 6.645 0 0 1 3.299 4.315c.067.288.113.581.139.876l25.678 14.791 6.39-3.673 7.079 9.253-9.922 7.061a6.617 6.617 0 0 1-7.894-.192Z"
    fill="#FFB8B8" />
  <path
    d="m406.767 111.085-14.717-9.993 6.917-9.781a6.75 6.75 0 0 1 3.807-2.634 6.762 6.762 0 0 1 4.612.437 6.737 6.737 0 0 1 3.563 8.017l-4.182 13.954Z"
    fill="#FDD068" />
  <path
    d="M413.846 79.663c8.199 0 14.846-6.637 14.846-14.824 0-8.187-6.647-14.823-14.846-14.823-8.2 0-14.846 6.636-14.846 14.823 0 8.187 6.646 14.824 14.846 14.824Z"
    fill="#FFB8B8" />
  <path
    d="M408.403 62.631c-3.816 2.608-8.826 5.288-12.723 2.512-2.559-1.824-3.366-5.2-2.328-8.163 1.866-5.329 6.993-7.674 11.896-9.472 6.374-2.338 13.314-4.198 19.893-2.524 6.58 1.674 12.395 8.035 11.207 14.71-.955 5.368-6.026 9.835-5.306 15.24.724 5.439 6.851 8.302 12.259 9.274 5.409.972 11.461 1.284 15.348 5.163 4.958 4.949 3.72 13.793-.946 19.018-4.665 5.224-11.706 7.592-18.529 9.202-9.039 2.133-18.816 3.254-27.401-.286s-15.266-13.069-12.779-22.005c1.051-3.774 3.525-6.964 5.917-10.07 2.392-3.105 4.813-6.352 5.726-10.163.76-3.174.197-6.86-1.912-9.243a2.676 2.676 0 0 1-.359-3.13l.037-.063Z"
    fill="#2F2E41" />
</svg>