<svg xmlns="http://www.w3.org/2000/svg" viewBox="0 0 325.49 131.45">
    <path
        d="M8.74 121.47Q0 111.48 0 93.54a50.64 50.64 0 014.49-21.9A34.64 34.64 0 0117 56.93a32.63 32.63 0 0118.18-5.18q13.77 0 20.35 8.43t6.58 20.51q0 8.06-1.63 10.83t-5.8 2.79H16.1q0 11.61 5.41 18.49t17.64 6.89a49.06 49.06 0 009.75-.85 48.24 48.24 0 006.5-1.7 18.62 18.62 0 002.79-1.14l2.32 5.11q0 .32-3.64 3a41.75 41.75 0 01-9.44 5 34.87 34.87 0 01-13.07 2.32q-16.87 0-25.62-10M46.43 85a35.58 35.58 0 00.46-5.88q0-9-2.94-13.15t-10.83-4.16q-8.67 0-12.69 6.27T16.1 86.26zM201.61 121.47q-8.76-10-8.75-27.93a50.79 50.79 0 014.49-21.9 34.64 34.64 0 0112.46-14.71A32.63 32.63 0 01228 51.75q13.77 0 20.35 8.43t6.58 20.51q0 8.06-1.62 10.83c-1.09 1.86-3 2.79-5.81 2.79H209q0 11.61 5.41 18.49t17.59 6.89a48.94 48.94 0 0016.25-2.55 18.81 18.81 0 002.78-1.17l2.32 5.11q0 .32-3.63 3a42.19 42.19 0 01-9.44 5 34.92 34.92 0 01-13.08 2.32q-16.87 0-25.61-10m37.7-36.4a35.58 35.58 0 00.46-5.88q0-9-2.94-13.15T226 61.81q-8.67 0-12.69 6.27T209 86.26zM321 124.8a37.79 37.79 0 01-9.05 4.56 36.51 36.51 0 01-12.77 2.09q-15.94 0-24.92-9.67t-9-28.24a51.53 51.53 0 014.41-21.9 34 34 0 0112.46-14.71 33.56 33.56 0 0118.57-5.18q11.29 0 18 5.57a17.39 17.39 0 016.73 13.93 8 8 0 01-2.09 5.57c-1.39 1.55-3.59 2.32-6.58 2.32a10.73 10.73 0 01-3.48-.46c-.88-.31-1.42-.52-1.62-.62l-2.64-14.7a10.44 10.44 0 00-2.7-.85 24.4 24.4 0 00-6.12-.7q-10.51 0-14.7 6.73t-4.12 22.36q0 15.64 5.57 22.21t18.27 6.58a50.8 50.8 0 008.12-.62 47 47 0 006-1.31 24.81 24.81 0 002.86-1l2.17 5.26q0 .31-3.41 2.79M175.68 60.26q-7.74-8.5-20.42-8.51a31.4 31.4 0 00-13.16 2.55 37.5 37.5 0 00-8.81 5.34l.3 6a52.18 52.18 0 0114.7-2.32q10.22 0 14.47 6.42T167 91.21q0 16.26-5 23.22t-14.55 7a39 39 0 01-13.93-2.63l-1.24 5.88q7.13 6.66 18 6.66a28.74 28.74 0 0016.49-5.11q7.5-5.11 12.07-15.17t4.56-24.45q0-17.79-7.74-26.31"
        fill="#fff" />
    <path fill="#e84970" d="M77.73 0H97.9v130.54H77.73z" />
    <path fill="#fdd069" d="M115.48 13.23h20.17v117.3h-20.17z" />
    <path fill="#8ec9e5" d="M77.73 33.16H97.9v97.38H77.73z" />
    <path d="M115.48 59.82h20.17v70.71h-20.17zM77.73 105.82H97.9v24.71H77.73z" fill="#4fb693" />
</svg>